<?xml version="1.0" encoding="UTF-8"?>
<svg id="Layer_1" xmlns="http://www.w3.org/2000/svg" version="1.1" viewBox="0 0 181.76 115.19">
  <!-- Generator: Adobe Illustrator 30.3.0, SVG Export Plug-In . SVG Version: 2.1.3 Build 182)  -->
  <polygon points="55.52 13.5 55.54 13.5 55.52 13.52 55.52 53.84 55.62 53.94 55.52 53.94 61.36 59.75 61.37 59.74 61.38 59.75 64.47 56.63 67.23 53.85 67.22 53.85 67.23 53.84 67.23 13.41 61.39 7.6 55.52 13.5"/>
  <polygon points="5.84 59.57 5.85 59.56 5.86 59.57 8.95 56.44 11.71 53.67 11.7 53.67 11.71 53.65 11.71 13.23 5.87 7.42 0 13.32 .02 13.32 0 13.34 0 53.65 .1 53.75 0 53.75 5.84 59.57"/>
  <polygon points="13.44 11.68 13.46 11.7 53.78 11.7 53.88 11.6 53.88 11.7 59.69 5.86 59.68 5.85 59.69 5.84 56.57 2.75 53.79 -.02 53.79 0 53.78 -.02 13.35 -.02 7.54 5.83 13.44 11.7 13.44 11.68"/>
  <polygon points="59.68 61.37 59.69 61.36 56.57 58.27 53.79 55.51 53.79 55.52 53.78 55.51 13.35 55.51 7.54 61.35 13.44 67.22 13.44 67.2 13.46 67.22 53.78 67.22 53.88 67.12 53.88 67.22 59.69 61.38 59.68 61.37"/>
  <polygon points="55.52 69 55.54 69 55.52 69.02 55.52 109.33 55.62 109.43 55.52 109.43 61.36 115.25 61.37 115.24 61.38 115.25 64.47 112.12 67.23 109.35 67.22 109.35 67.23 109.33 67.23 68.91 61.39 63.1 55.52 69"/>
  <polygon points="0 68.81 .02 68.81 0 68.83 0 109.15 .1 109.25 0 109.25 5.84 115.06 5.85 115.05 5.86 115.06 8.95 111.94 11.71 109.16 11.7 109.16 11.71 109.15 11.71 68.72 5.87 62.91 0 68.81"/>
  <polygon points="95.82 59.69 95.83 59.68 95.84 59.69 98.93 56.56 101.69 53.79 101.68 53.79 101.69 53.77 101.69 13.35 95.85 7.54 89.98 13.44 90 13.44 89.98 13.46 89.98 53.77 90.08 53.88 89.98 53.88 95.82 59.69"/>
  <polygon points="89.98 68.94 90 68.94 89.98 68.96 89.98 109.27 90.08 109.37 89.98 109.37 95.82 115.19 95.83 115.18 95.84 115.19 98.93 112.06 101.69 109.29 101.68 109.29 101.69 109.27 101.69 68.85 95.85 63.04 89.98 68.94"/>
  <polygon points="128.36 0 103.44 0 97.59 5.84 103.44 11.68 128.36 11.68 134.2 5.84 128.36 0"/>
  <polygon points="130.02 13.41 130.04 13.41 130.02 13.43 130.02 53.74 130.12 53.85 130.02 53.85 135.86 59.66 135.86 59.65 135.87 59.66 138.97 56.53 141.73 53.76 141.71 53.76 141.73 53.74 141.73 13.32 135.89 7.51 130.02 13.41"/>
  <polygon points="130.02 68.91 130.04 68.91 130.02 68.93 130.02 109.24 130.12 109.34 130.02 109.34 135.86 115.16 135.86 115.15 135.87 115.16 138.97 112.03 141.73 109.26 141.71 109.26 141.73 109.24 141.73 68.82 135.89 63.01 130.02 68.91"/>
  <polygon points="168.39 -.03 143.47 -.03 137.63 5.81 143.47 11.65 168.39 11.65 174.23 5.81 168.39 -.03"/>
  <polygon points="181.76 13.35 175.92 7.54 170.05 13.44 170.07 13.44 170.05 13.46 170.05 53.77 170.15 53.88 170.05 53.88 175.89 59.69 175.9 59.68 175.91 59.69 179 56.56 181.76 53.79 181.75 53.79 181.76 53.77 181.76 13.35"/>
  <polygon points="170.05 68.94 170.07 68.94 170.05 68.96 170.05 109.27 170.15 109.37 170.05 109.37 175.89 115.19 175.9 115.18 175.91 115.19 179 112.06 181.76 109.29 181.75 109.29 181.76 109.27 181.76 68.85 175.92 63.04 170.05 68.94"/>
</svg>